<?xml version="1.0" encoding="UTF-8"?>
<svg version="1.1" xmlns="http://www.w3.org/2000/svg" width="512" height="512">
<path d="M0 0 C3.30225078 2.98352954 6.52367407 6.04733058 9.73046875 9.1328125 C10.30829102 9.68340332 10.88611328 10.23399414 11.48144531 10.80126953 C19.51536856 18.4863687 26.77210773 26.44434935 33.40820312 35.36621094 C34.7291294 37.13102308 36.07828712 38.87087736 37.43359375 40.609375 C45.29015035 50.82289858 51.6741465 61.77488211 57.73046875 73.1328125 C58.39393311 74.37345459 58.39393311 74.37345459 59.07080078 75.63916016 C89.3630879 133.25075131 93.65133077 203.35378522 74.46972656 265.12207031 C62.60075156 302.12061192 42.82614917 335.30253433 15.73046875 363.1328125 C15.16827637 363.71546875 14.60608398 364.298125 14.02685547 364.8984375 C6.65926935 372.51208432 -0.83083711 379.69516372 -9.26953125 386.1328125 C-9.81125977 386.55095215 -10.35298828 386.9690918 -10.91113281 387.39990234 C-55.27656686 421.50131982 -108.38911216 439.66265005 -164.33203125 439.4453125 C-165.32875854 439.44315735 -166.32548584 439.4410022 -167.35241699 439.43878174 C-181.83683705 439.38849063 -196.04156647 439.10337009 -210.26953125 436.1328125 C-211.75791504 435.82682129 -211.75791504 435.82682129 -213.27636719 435.51464844 C-258.83043587 425.88225534 -298.27738942 405.68168019 -333.26953125 375.1328125 C-333.77436035 374.69259766 -334.27918945 374.25238281 -334.79931641 373.79882812 C-340.05834263 369.18619156 -345.05832387 364.51624107 -349.5546875 359.15234375 C-350.73402828 357.76346179 -351.9531806 356.40772985 -353.203125 355.08203125 C-386.43002147 319.78226417 -405.20553002 273.33975353 -413.26953125 226.1328125 C-413.41503418 225.29476074 -413.56053711 224.45670898 -413.71044922 223.59326172 C-417.79214425 198.66402475 -416.55322829 170.91189417 -412.26953125 146.1328125 C-412.10855957 145.1929248 -411.94758789 144.25303711 -411.78173828 143.28466797 C-403.54036054 97.18520342 -381.91032931 54.99961992 -350.45703125 20.54296875 C-348.33686508 18.20699996 -346.27255815 15.82954375 -344.20703125 13.4453125 C-341.19883079 10.06623801 -338.08062445 7.02907049 -334.62109375 4.1171875 C-332.84094622 2.61500321 -331.09072595 1.0772603 -329.35546875 -0.4765625 C-295.95266663 -30.24118656 -254.09129008 -49.57832109 -210.26953125 -57.8671875 C-209.45484375 -58.03089844 -208.64015625 -58.19460937 -207.80078125 -58.36328125 C-134.99764111 -72.48055682 -55.10523147 -48.86846405 0 0 Z " fill="#0FB1EC" transform="translate(421.26953125,66.8671875)"/>
<path d="M0 0 C1.10601562 0.2165625 2.21203125 0.433125 3.3515625 0.65625 C6.28478421 1.32037567 9.12621192 2.11344577 12 3 C12.90999756 3.27553711 12.90999756 3.27553711 13.83837891 3.55664062 C34.90855003 10.05882422 52.98433812 20.87264563 69 36 C69.73863281 36.67417969 70.47726562 37.34835938 71.23828125 38.04296875 C97.2238358 62.64385787 108.31334853 97.92952305 109.33666992 132.88085938 C109.83985884 168.90534023 97.25821511 203.32577702 72.3828125 229.44140625 C70.41691393 231.55233012 68.6679898 233.65266335 67 236 C67.76183594 236.88300781 68.52367187 237.76601563 69.30859375 238.67578125 C74.79289719 245.0449666 80.22894077 251.44261917 85.53125 257.96484375 C88.63329343 261.77859018 91.75195243 265.57844439 94.875 269.375 C95.4743335 270.10372314 96.07366699 270.83244629 96.69116211 271.58325195 C100.40313291 276.08752492 104.15258956 280.5569309 107.9375 285 C120 299.17753853 120 299.17753853 120 301 C110.20372822 301.39612652 100.40939593 301.6970238 90.60671043 301.88080692 C86.0529394 301.9690835 81.5046918 302.08846325 76.95410156 302.2824707 C45.09127254 303.60555298 45.09127254 303.60555298 37.67211914 297.45214844 C34.47994548 293.99573969 32.16071655 290.23665171 30.06091309 286.04037476 C28.66055278 283.34716656 26.84172025 281.20088717 24.82421875 278.9453125 C23.77831459 277.67214705 22.73271611 276.39873037 21.6875 275.125 C21.13900391 274.46371094 20.59050781 273.80242187 20.02539062 273.12109375 C19.24518555 272.16783203 19.24518555 272.16783203 18.44921875 271.1953125 C17.77379028 270.37571045 17.77379028 270.37571045 17.0847168 269.53955078 C16 268 16 268 15 265 C14.46342773 265.19118408 13.92685547 265.38236816 13.37402344 265.5793457 C-12.72025564 274.61219716 -46.1325345 275.7647447 -73 269 C-74.16909912 268.71793701 -74.16909912 268.71793701 -75.36181641 268.43017578 C-93.44519526 263.93703342 -111.09413004 256.27951652 -126 245 C-126.90492188 244.31550781 -127.80984375 243.63101563 -128.7421875 242.92578125 C-154.64059644 222.49318383 -169.04829896 196.76999073 -177 165 C-177.2165625 164.22785156 -177.433125 163.45570313 -177.65625 162.66015625 C-185.5492084 134.28032789 -179.30380085 96.74506274 -166 71 C-165.53787109 70.09628662 -165.53787109 70.09628662 -165.06640625 69.17431641 C-148.62559602 37.54622245 -119.79035048 14.52456133 -85.99902344 3.60839844 C-79.74170094 1.70399594 -73.42132718 0.23161394 -67 -1 C-65.82050781 -1.226875 -64.64101562 -1.45375 -63.42578125 -1.6875 C-42.63850262 -4.92357365 -20.59804409 -4.07882061 0 0 Z " fill="#FEFEFE" transform="translate(286,107)"/>
<path d="M0 0 C1.9375 0.8125 1.9375 0.8125 4 2 C4.33 2.99 4.66 3.98 5 5 C6.32567547 5.68176738 7.66065225 6.34550032 9 7 C10.60874417 8.4285292 12.16506925 9.91681223 13.68586731 11.43862915 C14.14170391 11.89205134 14.59754052 12.34547353 15.06719035 12.81263578 C16.59100612 14.33082314 18.10757807 15.85604352 19.62426758 17.38134766 C20.71651231 18.47251923 21.80918992 19.56325765 22.90226746 20.65359497 C25.8698132 23.61629214 28.8310679 26.58520511 31.79111314 29.5553937 C34.89421111 32.66728267 38.00258755 35.77389089 41.11027527 38.88119507 C46.33319935 44.10505601 51.55223578 49.33277559 56.76879883 54.56298828 C62.78661053 60.59648868 68.80959532 66.62478413 74.83562356 72.65007746 C81.26240546 79.07618159 87.6853632 85.5060977 94.10722136 91.93712187 C95.95102815 93.78305248 97.79553768 95.62827837 99.64020729 97.47334671 C102.55065213 100.38480279 105.45850948 103.29882004 108.36445808 106.21476364 C109.42656647 107.27977141 110.48949794 108.34395912 111.55334854 109.40722656 C116.73589091 114.58800432 121.84135464 119.78700642 126.57209301 125.39011192 C129.42554979 128.60723046 132.85446841 131.27613919 136.15625 134.01953125 C140.16925923 140.5066627 136.85251318 149.53064115 135.23779297 156.58398438 C124.35810364 201.42760128 103.25446345 241.87107774 71 275 C70.43780762 275.58265625 69.87561523 276.1653125 69.29638672 276.765625 C61.9288006 284.37927182 54.43869414 291.56235122 46 298 C45.45827148 298.41813965 44.91654297 298.8362793 44.35839844 299.26708984 C19.39390574 318.45600585 -24.26555086 347.77583866 -57.24537373 345.87026215 C-61.1154624 344.64759477 -63.39764788 342.1381011 -66.16850281 339.30578613 C-66.771646 338.70535508 -67.37478919 338.10492402 -67.99620944 337.48629808 C-70.01711331 335.46964493 -72.02337294 333.43902632 -74.0300293 331.40820312 C-75.47491241 329.96055502 -76.92068446 328.5137937 -78.36727905 327.06785583 C-82.29531881 323.13668866 -86.21096592 319.19338025 -90.12468314 315.24796104 C-94.2175946 311.12635127 -98.32220716 307.01643027 -102.42573547 302.90539551 C-110.19773293 295.11579206 -117.95990187 287.31647416 -125.71825296 279.51328135 C-137.1158216 268.05054176 -148.52607987 256.60044431 -159.93874073 245.15273285 C-160.7743167 244.31458746 -161.60989268 243.47644208 -162.47078913 242.61289835 C-164.13627006 240.9423204 -165.80178345 239.27177481 -167.46733028 237.60126257 C-172.35658929 232.69671058 -177.24228163 227.78863969 -182.12497938 222.87755585 C-185.15665806 219.82890989 -188.19025288 216.78217558 -191.22423935 213.73582649 C-192.63528911 212.31808841 -194.04545632 210.89947135 -195.45469475 209.47993279 C-197.37168587 207.5490947 -199.29168211 205.62129565 -201.21244812 203.69421387 C-201.77518124 203.12583943 -202.33791436 202.55746499 -202.91769999 201.97186708 C-205.69103205 199.13294862 -205.69103205 199.13294862 -209 197 C-209 196.34 -209 195.68 -209 195 C-205.92024742 196.4448222 -203.06514621 198.17351679 -200.17944336 199.9699707 C-187.09255629 208.06648734 -173.95300655 214.25260838 -159 218 C-157.16644725 218.54092346 -155.33310213 219.08255141 -153.5 219.625 C-141.12548787 222.90710725 -128.77915238 223.40142099 -116.0625 223.375 C-114.85200989 223.37617828 -114.85200989 223.37617828 -113.61706543 223.37738037 C-100.07324048 223.36164808 -87.21309603 222.09874559 -74 219 C-72.29725451 218.62068818 -70.59414146 218.24302168 -68.890625 217.8671875 C-67.60671875 217.58101562 -66.3228125 217.29484375 -65 217 C-64.33355469 217.85980469 -63.66710937 218.71960938 -62.98046875 219.60546875 C-56.9416817 227.36156696 -50.81990658 235.02495052 -44.27180481 242.36141968 C-43 244 -43 244 -42.03813171 246.0284729 C-40.62507326 248.6887331 -39.42723378 250.18415085 -37 252 C-31.2683398 253.15883565 -25.612199 252.93159736 -19.7890625 252.78125 C-18.09372634 252.76631797 -16.39835552 252.75493548 -14.70297241 252.74694824 C-10.25343517 252.7164885 -5.80600703 252.63798301 -1.3572998 252.54931641 C3.18729114 252.46728921 7.73222497 252.43090103 12.27734375 252.390625 C21.18581953 252.30497926 30.09273399 252.16855019 39 252 C38.25959473 251.12682129 37.51918945 250.25364258 36.75634766 249.35400391 C35.76723127 248.18654151 34.77813742 247.01906002 33.7890625 245.8515625 C33.06021851 244.99220093 33.06021851 244.99220093 32.31665039 244.11547852 C27.07034807 237.92089058 21.94831235 231.62706052 16.828125 225.328125 C12.74722763 220.32106653 8.62159167 215.35826806 4.4375 210.4375 C-2.0103989 202.84489783 -8.308056 195.18216949 -14 187 C-13.33355469 186.37996094 -12.66710937 185.75992188 -11.98046875 185.12109375 C7.20751256 166.68452989 19.67919611 143.09727622 25 117 C25.13535156 116.36964844 25.27070313 115.73929687 25.41015625 115.08984375 C33.4287559 77.01955534 25.03657821 38.38525855 4 6 C2.67508281 3.99412917 1.34044496 1.99557234 0 0 Z " fill="#0091CC" transform="translate(366,155)"/>
<path d="M0 0 C12.02401305 9.98918007 20.94529856 25.65900849 23.4765625 41.109375 C23.75559819 45.38384174 23.75604409 49.63967387 23.7265625 53.921875 C23.73429688 55.03369141 23.74203125 56.14550781 23.75 57.29101562 C23.72644289 67.35578968 22.62763591 76.74856669 18.4765625 85.984375 C18.17532471 86.65855469 17.87408691 87.33273437 17.5637207 88.02734375 C9.4185954 105.37529676 -4.56089493 116.6190872 -22.4296875 123.17578125 C-41.23047694 129.03687073 -60.04255054 127.14417629 -77.7109375 118.921875 C-93.62552009 110.51954504 -104.21621045 97.94216746 -110.5234375 81.109375 C-117.08389213 59.75573836 -115.94890163 39.47901386 -105.72412109 19.70507812 C-96.4701251 2.69498946 -81.19016913 -8.33430228 -62.7734375 -13.890625 C-40.81665588 -18.54630373 -17.86160391 -13.38237816 0 0 Z " fill="#0377A2" transform="translate(295.5234375,185.890625)"/>
</svg>
